<?xml version="1.0" encoding="UTF-8" standalone="no"?>
<!-- Created with Inkscape (http://www.inkscape.org/) -->

<svg
   xmlns:dc="http://purl.org/dc/elements/1.1/"
   xmlns:cc="http://creativecommons.org/ns#"
   xmlns:rdf="http://www.w3.org/1999/02/22-rdf-syntax-ns#"
   xmlns:svg="http://www.w3.org/2000/svg"
   xmlns="http://www.w3.org/2000/svg"
   xmlns:sodipodi="http://sodipodi.sourceforge.net/DTD/sodipodi-0.dtd"
   xmlns:inkscape="http://www.inkscape.org/namespaces/inkscape"
   width="250"
   height="143"
   viewBox="0 0 250 143"
   id="svg4737"
   version="1.1"
   inkscape:version="0.91 r13725"
   sodipodi:docname="HomePage_hills.svg">
  <defs
     id="defs4739" />
  <sodipodi:namedview
     id="base"
     pagecolor="#000004"
     bordercolor="#666666"
     borderopacity="1.0"
     inkscape:pageopacity="1"
     inkscape:pageshadow="2"
     inkscape:zoom="8"
     inkscape:cx="40.591891"
     inkscape:cy="2.3019759"
     inkscape:document-units="px"
     inkscape:current-layer="layer1"
     showgrid="false"
     showborder="true"
     showguides="true"
     inkscape:guide-bbox="true"
     inkscape:window-width="1920"
     inkscape:window-height="1057"
     inkscape:window-x="-8"
     inkscape:window-y="-8"
     inkscape:window-maximized="1"
     units="px" />
  <metadata
     id="metadata4742">
    <rdf:RDF>
      <cc:Work
         rdf:about="">
        <dc:format>image/svg+xml</dc:format>
        <dc:type
           rdf:resource="http://purl.org/dc/dcmitype/StillImage" />
        <dc:title></dc:title>
      </cc:Work>
    </rdf:RDF>
  </metadata>
  <g
     inkscape:label="Layer 1"
     inkscape:groupmode="layer"
     id="layer1"
     transform="translate(0,-909.36214)">
    <g
       id="g4697"
       transform="translate(311.07856,506.84626)">
      <g
         transform="matrix(0.49504122,0,0,0.49402392,-28.015949,276.04628)"
         id="g4689">
        <path
           sodipodi:nodetypes="sccccs"
           inkscape:connector-curvature="0"
           id="path4691"
           d="m -204.93757,343.15253 c -58.54218,0 -106,88.90548 -106,198.57595 0.0176,1.28154 0.0419,2.56274 0.0728,3.8434 l 211.82436,0 c 0.0409,-1.28048 0.0752,-2.56167 0.10285,-3.8434 0,-109.67048 -47.45782,-198.57596 -106.00001,-198.57595 z"
           style="opacity:1;fill:#ffffff;fill-opacity:1;stroke:none;stroke-width:25;stroke-linecap:round;stroke-linejoin:round;stroke-miterlimit:4;stroke-dasharray:none;stroke-opacity:1" />
        <path
           style="opacity:1;fill:#5fd3bc;fill-opacity:0.63921569;stroke:none;stroke-width:25;stroke-linecap:round;stroke-linejoin:round;stroke-miterlimit:4;stroke-dasharray:none;stroke-opacity:1"
           d="m -193.22109,387.75295 c -8.10691,0.33907 -18.53413,54.34827 -26.39544,54.86544 -23.45545,7.06303 -22.00336,-43.27059 -35.50981,-43.08658 -16.24194,0 -9.41154,8.74846 -27.02122,8.93248 -2.39355,-0.73607 7.54462,-14.88314 7.54462,-14.88314 -23.75705,37.72095 -36.43187,89.7923 -36.43817,148.13272 0.0177,1.28159 0.0419,2.56282 0.0728,3.84353 l 211.82436,0 c 0.0409,-1.28052 0.0752,-2.56176 0.10285,-3.84353 -0.0429,-51.44963 -10.74361,-100.85976 -29.8479,-137.82199 -12.48343,1.348 -17.87864,-22.43138 -29.59079,-22.79677 -13.84838,-0.18402 8.64965,24.46834 -6.22454,25.20441 -15.9,0 -10.58544,-19.41932 -28.51676,-18.54657 z"
           id="path4693"
           inkscape:connector-curvature="0"
           sodipodi:nodetypes="ccccccccccccc" />
        <path
           inkscape:connector-curvature="0"
           id="path4695"
           d="m -193.04102,387.75195 c -0.0618,0.003 -0.11728,-0.001 -0.17968,0.002 -8.10691,0.33907 -18.53518,54.34806 -26.39649,54.86523 -23.45545,7.06303 -22.00331,-43.2719 -35.50976,-43.08789 -16.24194,0 -9.41181,8.74957 -27.02149,8.93359 -0.34551,-0.10625 -0.41001,-0.5154 -0.30859,-1.09765 -18.68111,36.18035 -28.57842,82.81509 -28.58399,134.34765 0.0177,1.28159 0.0414,2.56109 0.0723,3.8418 l 117.92773,0 0,-157.80469 z m -89.41601,19.61524 c 2.46792,-4.77971 5.08126,-9.38343 7.85351,-13.78516 0,0 -7.25233,10.3338 -7.85351,13.78516 z"
           style="opacity:1;fill:#5fd3bc;fill-opacity:1;stroke:none;stroke-width:25;stroke-linecap:round;stroke-linejoin:round;stroke-miterlimit:4;stroke-dasharray:none;stroke-opacity:1" />
      </g>
      <g
         transform="matrix(0.70720174,0,0,0.7064542,-91.072295,160.15033)"
         id="g4684">
        <path
           style="opacity:1;fill:#ffffff;fill-opacity:1;stroke:none;stroke-width:25;stroke-linecap:round;stroke-linejoin:round;stroke-miterlimit:4;stroke-dasharray:none;stroke-opacity:1"
           d="m -204.93757,343.15253 c -58.54218,0 -106,88.90548 -106,198.57595 0.0176,1.28154 0.0419,2.56274 0.0728,3.8434 l 211.82436,0 c 0.0409,-1.28048 0.0752,-2.56167 0.10285,-3.8434 0,-109.67048 -47.45782,-198.57596 -106.00001,-198.57595 z"
           id="path4136"
           inkscape:connector-curvature="0"
           sodipodi:nodetypes="sccccs" />
        <path
           sodipodi:nodetypes="ccccccccccccc"
           inkscape:connector-curvature="0"
           id="path4722"
           d="m -193.22109,387.75295 c -8.10691,0.33907 -18.53413,54.34827 -26.39544,54.86544 -23.45545,7.06303 -22.00336,-43.27059 -35.50981,-43.08658 -16.24194,0 -9.41154,8.74846 -27.02122,8.93248 -2.39355,-0.73607 7.54462,-14.88314 7.54462,-14.88314 -23.75705,37.72095 -36.43187,89.7923 -36.43817,148.13272 0.0177,1.28159 0.0419,2.56282 0.0728,3.84353 l 211.82436,0 c 0.0409,-1.28052 0.0752,-2.56176 0.10285,-3.84353 -0.0429,-51.44963 -10.74361,-100.85976 -29.8479,-137.82199 -12.48343,1.348 -17.87864,-22.43138 -29.59079,-22.79677 -13.84838,-0.18402 8.64965,24.46834 -6.22454,25.20441 -15.9,0 -10.58544,-19.41932 -28.51676,-18.54657 z"
           style="opacity:1;fill:#5fd3bc;fill-opacity:0.63921569;stroke:none;stroke-width:25;stroke-linecap:round;stroke-linejoin:round;stroke-miterlimit:4;stroke-dasharray:none;stroke-opacity:1" />
        <path
           inkscape:connector-curvature="0"
           style="opacity:1;fill:#5fd3bc;fill-opacity:1;stroke:none;stroke-width:25;stroke-linecap:round;stroke-linejoin:round;stroke-miterlimit:4;stroke-dasharray:none;stroke-opacity:1"
           d="m -193.04102,387.75195 c -0.0618,0.003 -0.11728,-0.001 -0.17968,0.002 -8.10691,0.33907 -18.53518,54.34806 -26.39649,54.86523 -23.45545,7.06303 -22.00331,-43.2719 -35.50976,-43.08789 -16.24194,0 -9.41181,8.74957 -27.02149,8.93359 -0.34551,-0.10625 -0.41001,-0.5154 -0.30859,-1.09765 -18.68111,36.18035 -28.57842,82.81509 -28.58399,134.34765 0.0177,1.28159 0.0414,2.56109 0.0723,3.8418 l 117.92773,0 0,-157.80469 z m -89.41601,19.61524 c 2.46792,-4.77971 5.08126,-9.38343 7.85351,-13.78516 0,0 -7.25233,10.3338 -7.85351,13.78516 z"
           id="path5317" />
      </g>
    </g>
  </g>
</svg>
