<?xml version="1.0" encoding="UTF-8" standalone="no"?>
<!-- Created with Inkscape (http://www.inkscape.org/) -->

<svg
   xmlns:dc="http://purl.org/dc/elements/1.1/"
   xmlns:cc="http://creativecommons.org/ns#"
   xmlns:rdf="http://www.w3.org/1999/02/22-rdf-syntax-ns#"
   xmlns:svg="http://www.w3.org/2000/svg"
   xmlns="http://www.w3.org/2000/svg"
   xmlns:sodipodi="http://sodipodi.sourceforge.net/DTD/sodipodi-0.dtd"
   xmlns:inkscape="http://www.inkscape.org/namespaces/inkscape"
   width="239"
   height="255"
   viewBox="0 0 239 255"
   id="svg2"
   version="1.1"
   inkscape:version="0.91 r13725"
   sodipodi:docname="meHead.svg"
   inkscape:export-filename="C:\Users\Jedson\Pictures\Vectors\meHead\meHead_100_ears_border.png"
   inkscape:export-xdpi="38.230896"
   inkscape:export-ydpi="38.230896">
  <defs
     id="defs4" />
  <sodipodi:namedview
     id="base"
     pagecolor="#006262"
     bordercolor="#666666"
     borderopacity="1.0"
     inkscape:pageopacity="0"
     inkscape:pageshadow="2"
     inkscape:zoom="1.4142136"
     inkscape:cx="52.700913"
     inkscape:cy="46.222751"
     inkscape:document-units="px"
     inkscape:current-layer="layer1"
     showgrid="false"
     showborder="true"
     showguides="false"
     inkscape:guide-bbox="true"
     objecttolerance="20"
     inkscape:snap-path-clip="false"
     guidetolerance="20"
     inkscape:window-width="1920"
     inkscape:window-height="1057"
     inkscape:window-x="-8"
     inkscape:window-y="-8"
     inkscape:window-maximized="1"
     units="px">
    <sodipodi:guide
       position="-54.5,761.50002"
       orientation="0,1"
       id="guide4146" />
    <sodipodi:guide
       position="-54.5,761.50002"
       orientation="1,0"
       id="guide4152" />
    <sodipodi:guide
       position="-68.235805,800.44489"
       orientation="0,1"
       id="guide4162" />
    <sodipodi:guide
       position="-72.655222,794.96482"
       orientation="0,1"
       id="guide4164" />
    <sodipodi:guide
       position="-109.42478,800.44489"
       orientation="1,0"
       id="guide4168" />
    <sodipodi:guide
       position="-0.74345912,664.34969"
       orientation="0.9999838,0.0056916849"
       id="guide4170" />
    <sodipodi:guide
       position="-58.86664,790.5454"
       orientation="1,0"
       id="guide4172" />
    <sodipodi:guide
       position="-49.851029,785.9492"
       orientation="1,0"
       id="guide4174" />
    <sodipodi:guide
       position="-66.291261,817.0619"
       orientation="0,1"
       id="guide4182" />
    <sodipodi:guide
       position="-70.180349,804.33398"
       orientation="0,1"
       id="guide4188" />
    <sodipodi:guide
       position="-100.76272,789.66152"
       orientation="0,1"
       id="guide4201" />
    <sodipodi:guide
       position="-68.235805,731.3252"
       orientation="0,1"
       id="guide4203" />
    <sodipodi:guide
       position="-70.357125,776.04971"
       orientation="1,0"
       id="guide4228" />
    <sodipodi:guide
       position="-39.59798,754.1294"
       orientation="1,0"
       id="guide4230" />
  </sodipodi:namedview>
  <metadata
     id="metadata7">
    <rdf:RDF>
      <cc:Work
         rdf:about="">
        <dc:format>image/svg+xml</dc:format>
        <dc:type
           rdf:resource="http://purl.org/dc/dcmitype/StillImage" />
        <dc:title></dc:title>
      </cc:Work>
    </rdf:RDF>
  </metadata>
  <g
     inkscape:label="Layer 1"
     inkscape:groupmode="layer"
     id="layer1"
     transform="translate(0,-797.36218)">
    <g
       id="g5969"
       transform="translate(162.9916,586.0996)">
      <ellipse
         style="opacity:1;fill:#ffccaa;fill-opacity:1;stroke:#000000;stroke-width:1;stroke-linecap:round;stroke-linejoin:round;stroke-miterlimit:4;stroke-dasharray:none;stroke-opacity:1"
         id="ellipse5824"
         cx="30.120876"
         cy="290.6499"
         rx="20.059786"
         ry="21.015015" />
      <ellipse
         ry="21.015015"
         rx="20.059786"
         cy="290.6499"
         cx="-115.71059"
         id="path5822"
         style="opacity:1;fill:#ffccaa;fill-opacity:1;stroke:#040404;stroke-width:1;stroke-linecap:round;stroke-linejoin:round;stroke-miterlimit:4;stroke-dasharray:none;stroke-opacity:1" />
      <path
         inkscape:connector-curvature="0"
         id="ellipse5828"
         d="m -113.28583,274.29055 a 14.587793,15.282452 0 0 0 -14.58739,15.28362 14.587793,15.282452 0 0 0 14.58739,15.2821 14.587793,15.282452 0 0 0 0.4274,-0.0166 13.849172,14.508657 0 0 1 -13.53778,-14.49225 13.849172,14.508657 0 0 1 13.84888,-14.50886 13.849172,14.508657 0 0 1 13.833785,14.0573 14.587793,15.282452 0 0 0 0.0151,-0.32169 14.587793,15.282452 0 0 0 -14.587395,-15.28361 z"
         style="opacity:1;fill:#deaa87;fill-opacity:1;stroke:#ffffff;stroke-width:0;stroke-linecap:round;stroke-linejoin:round;stroke-miterlimit:4;stroke-dasharray:none;stroke-opacity:1" />
      <path
         style="opacity:1;fill:#deaa87;fill-opacity:1;stroke:#ffffff;stroke-width:0;stroke-linecap:round;stroke-linejoin:round;stroke-miterlimit:4;stroke-dasharray:none;stroke-opacity:1"
         d="m 28.107977,274.29055 a 14.587793,15.282452 0 0 1 14.58739,15.28362 14.587793,15.282452 0 0 1 -14.58739,15.2821 14.587793,15.282452 0 0 1 -0.4274,-0.0166 13.849172,14.508657 0 0 0 13.53778,-14.49225 13.849172,14.508657 0 0 0 -13.84888,-14.50886 13.849172,14.508657 0 0 0 -13.83379,14.0573 14.587793,15.282452 0 0 1 -0.0151,-0.32169 14.587793,15.282452 0 0 1 14.5874,-15.28361 z"
         id="path5833"
         inkscape:connector-curvature="0" />
      <path
         id="rect4419"
         d="m -70.85312,349.36945 54.37381,0 0,109.8817 -54.37381,0 z"
         style="opacity:1;fill:#ffccaa;fill-opacity:1;stroke:#000000;stroke-width:2.07340598;stroke-linecap:round;stroke-linejoin:round;stroke-miterlimit:4;stroke-dasharray:none;stroke-opacity:1"
         inkscape:connector-curvature="0" />
      <path
         inkscape:connector-curvature="0"
         id="path4413"
         d="m -72.20033,392.48192 c -18.34967,8.83901 -31.36993,26.68744 -37.22266,50.47461 l 0.83789,-0.83789 18.15039,11.14454 30.56641,9.55273 43.93945,-1.91016 35.71094,-15.25976 C 14.61353,421.54228 1.87228,402.06402 -16.89955,392.57372 a 27.930716,12.37437 0 0 1 -27.63672,10.68946 27.930716,12.37437 0 0 1 -27.66406,-10.78126 z"
         style="opacity:1;fill:#0b2228;fill-opacity:1;stroke:#000000;stroke-width:2;stroke-linecap:round;stroke-linejoin:round;stroke-miterlimit:4;stroke-dasharray:none;stroke-opacity:1" />
      <ellipse
         style="opacity:1;fill:none;fill-opacity:1;stroke:#ffffff;stroke-width:4.19661427;stroke-linecap:round;stroke-linejoin:round;stroke-miterlimit:4;stroke-dasharray:none;stroke-opacity:1"
         id="ellipse4827"
         cx="-42.908314"
         cy="347.91696"
         rx="116.13808"
         ry="116.24503" />
      <path
         id="rect4358"
         d="m -68.41495,344.73657 51.97235,0 0,109.95511 -51.97235,0 z"
         style="opacity:1;fill:none;fill-opacity:1;stroke:#e9c6af;stroke-width:0;stroke-linecap:round;stroke-linejoin:round;stroke-miterlimit:4;stroke-dasharray:none;stroke-opacity:1"
         inkscape:connector-curvature="0" />
      <path
         id="ellipse4202"
         d="m 32.328817,292.27878 a 75.237152,79.303528 0 0 1 -75.237147,79.30353 75.237152,79.303528 0 0 1 -75.23715,-79.30353 75.237152,79.303528 0 0 1 75.23715,-79.30353 75.237152,79.303528 0 0 1 75.237147,79.30353 z"
         style="opacity:0.944;fill:#000000;fill-opacity:1;stroke:#000000;stroke-width:1.9190954;stroke-linecap:round;stroke-linejoin:round;stroke-miterlimit:4;stroke-dasharray:none;stroke-opacity:1"
         inkscape:connector-curvature="0" />
      <path
         inkscape:connector-curvature="0"
         style="opacity:1;fill:#ffccaa;fill-opacity:1;stroke:#000000;stroke-width:1.9190954;stroke-linecap:round;stroke-linejoin:round;stroke-miterlimit:4;stroke-dasharray:none;stroke-opacity:1"
         d="m -70.21681,227.79847 c -9.96115,-0.15441 -28.93395,14.14212 -33.12618,17.39959 a 75.237156,79.303531 0 0 0 -14.80247,47.0807 75.237156,79.303531 0 0 0 75.23716,79.30353 75.237156,79.303531 0 0 0 75.237157,-79.30353 75.237156,79.303531 0 0 0 -14.318717,-46.37263 l 0,0.004 c 0,0 -23.29511,-17.76325 -33.53873,-17.76325 -12.88712,0.3483 -18.05897,17.76416 -27.14605,18.28661 -8.75664,-0.34831 -16.30724,-18.63487 -27.54217,-18.63487 z"
         id="path4204" />
      <path
         inkscape:connector-curvature="0"
         id="ellipse4326"
         d="m 30.747507,283.99351 a 77.63665,83.013512 0 0 1 0.10742,3.25781 77.63665,83.013512 0 0 1 -75.058587,82.91602 74,79.125 0 0 0 1.30859,0.0703 74,79.125 0 0 0 73.999997,-79.125 74,79.125 0 0 0 -0.35742,-7.11914 z"
         style="opacity:1;fill:#ffffff;fill-opacity:1;stroke:none;stroke-width:0;stroke-linecap:round;stroke-linejoin:round;stroke-miterlimit:4;stroke-dasharray:none;stroke-opacity:1" />
      <path
         style="fill:#000000;fill-rule:evenodd;stroke:#000000;stroke-width:0.98444676px;stroke-linecap:butt;stroke-linejoin:miter;stroke-opacity:1"
         d="m -56.88794,268.31571 c 2.91713,0.074 4.99825,-4.85851 -0.4606,-5.1544 -9.82612,-0.14794 -13.50734,0.14794 -41.29684,0.22191 -4.44939,1.65782 -8.66129,6.63348 -12.03902,12.69912 -0.40942,0.7767 8.866,-6.805 12.29491,-7.98854 6.14133,0.14794 38.22618,0.29589 41.50155,0.22191 z"
         id="path4216"
         inkscape:connector-curvature="0"
         sodipodi:nodetypes="cccccc" />
      <path
         sodipodi:nodetypes="cccccc"
         inkscape:connector-curvature="0"
         id="path4214"
         d="m -36.76088,268.31571 c -2.91713,0.074 -4.99825,-4.85851 0.4606,-5.1544 9.82612,-0.14794 13.50735,0.14794 41.29684,0.22191 4.44939,1.65782 8.6613,6.63348 12.03902,12.69912 0.40943,0.7767 -8.866,-6.805 -12.29491,-7.98854 -6.14132,0.14794 -38.22617,0.29589 -41.50155,0.22191 z"
         style="fill:#000000;fill-rule:evenodd;stroke:#000000;stroke-width:0.98444676px;stroke-linecap:butt;stroke-linejoin:miter;stroke-opacity:1" />
      <path
         id="circle4206"
         d="m -63.00488,284.40073 a 11.06574,11.06574 0 0 1 -11.06574,11.06574 11.06574,11.06574 0 0 1 -11.06574,-11.06574 11.06574,11.06574 0 0 1 11.06574,-11.06574 11.06574,11.06574 0 0 1 11.06574,11.06574 z"
         inkscape:transform-center-y="28.828303"
         inkscape:transform-center-x="3.2635831"
         style="opacity:1;fill:#000000;fill-opacity:1;stroke:none;stroke-width:25;stroke-linecap:round;stroke-linejoin:round;stroke-miterlimit:4;stroke-dasharray:none;stroke-opacity:1"
         inkscape:connector-curvature="0" />
      <path
         style="fill:none;fill-rule:evenodd;stroke:#000000;stroke-width:3;stroke-linecap:butt;stroke-linejoin:round;stroke-miterlimit:4;stroke-dasharray:none;stroke-opacity:1"
         d="m -41.95123,273.67233 c 0,0 -26.53174,39.20889 -26.00141,45.57285 0.88388,7.07107 40.19633,-2.43934 40.19633,-2.43934 l 0,0 0,0"
         id="path4208"
         inkscape:connector-curvature="0"
         sodipodi:nodetypes="ccccc" />
      <path
         style="fill:none;fill-rule:evenodd;stroke:#000000;stroke-width:3;stroke-linecap:butt;stroke-linejoin:miter;stroke-miterlimit:4;stroke-dasharray:none;stroke-opacity:1"
         d="m -77.83076,323.96712 c 0,0 9.47337,16.88846 29.55127,16.88846 26.4406,-0.86926 29.83405,-18.00608 29.83405,-18.00608 l 0,0"
         id="path4210"
         inkscape:connector-curvature="0"
         sodipodi:nodetypes="cccc" />
      <path
         sodipodi:nodetypes="ccccc"
         inkscape:connector-curvature="0"
         id="path4599"
         d="m -37.9708,372.94728 1.90307,28.30265 c 9.90637,-0.53175 19.33451,-6.86245 18.616,-10.22664 l -0.13258,-22.95527 c -6.53501,2.04205 -6.47037,1.96255 -8.39543,2.46171"
         style="fill:#deaa87;fill-rule:evenodd;stroke:#000000;stroke-width:0;stroke-linecap:butt;stroke-linejoin:miter;stroke-miterlimit:4;stroke-dasharray:none;stroke-opacity:1" />
      <path
         id="circle4795"
         d="m -9.92645,284.40073 a 11.06574,11.06574 0 0 1 -11.06574,11.06574 11.06574,11.06574 0 0 1 -11.06574,-11.06574 11.06574,11.06574 0 0 1 11.06574,-11.06574 11.06574,11.06574 0 0 1 11.06574,11.06574 z"
         inkscape:transform-center-y="28.828303"
         inkscape:transform-center-x="3.2635831"
         style="opacity:1;fill:#000000;fill-opacity:1;stroke:none;stroke-width:25;stroke-linecap:round;stroke-linejoin:round;stroke-miterlimit:4;stroke-dasharray:none;stroke-opacity:1"
         inkscape:connector-curvature="0" />
    </g>
  </g>
</svg>
