<svg xmlns="http://www.w3.org/2000/svg" width="210" height="297" viewBox="0 0 744.1 1052.4"><style>.a{fill:#fff;stroke-linejoin:round;stroke-width:30;}.b{fill-opacity:0.6;fill:#5fd3bc;stroke-linejoin:round;stroke-width:30;}.c{fill:#5fd3bc;stroke-linejoin:round;stroke-width:30;}</style><g transform="translate(-9.5459416 -20.152543)matrix(0.49504122 0 0 0.49402392 -28.015949 276.04628)"><path d="m-204.9 343.2c-58.5 0-106 88.9-106 198.6 0 1.3 0 2.6 0.1 3.8l211.8 0c0-1.3 0.1-2.6 0.1-3.8 0-109.7-47.5-198.6-106-198.6z" class="a"/><path d="m-193.2 387.8c-8.1 0.3-18.5 54.3-26.4 54.9-23.5 7.1-22-43.3-35.5-43.1-16.2 0-9.4 8.7-27 8.9-2.4-0.7 7.5-14.9 7.5-14.9-23.8 37.7-36.4 89.8-36.4 148.1 0 1.3 0 2.6 0.1 3.8l211.8 0c0-1.3 0.1-2.6 0.1-3.8 0-51.4-10.7-100.9-29.8-137.8-12.5 1.3-17.9-22.4-29.6-22.8-13.8-0.2 8.6 24.5-6.2 25.2-15.9 0-10.6-19.4-28.5-18.5z" class="b"/><path d="m-193 387.8c-0.1 0-0.1 0-0.2 0-8.1 0.3-18.5 54.3-26.4 54.9-23.5 7.1-22-43.3-35.5-43.1-16.2 0-9.4 8.7-27 8.9-0.3-0.1-0.4-0.5-0.3-1.1-18.7 36.2-28.6 82.8-28.6 134.3 0 1.3 0 2.6 0.1 3.8l117.9 0 0-157.8zm-89.4 19.6c2.5-4.8 5.1-9.4 7.9-13.8 0 0-7.3 10.3-7.9 13.8z" class="c"/></g><g transform="translate(-9.5459416 -20.152543)matrix(0.70720174 0 0 0.7064542 -91.072295 160.15033)"><path d="m-204.9 343.2c-58.5 0-106 88.9-106 198.6 0 1.3 0 2.6 0.1 3.8l211.8 0c0-1.3 0.1-2.6 0.1-3.8 0-109.7-47.5-198.6-106-198.6z" class="a"/><path d="m-193.2 387.8c-8.1 0.3-18.5 54.3-26.4 54.9-23.5 7.1-22-43.3-35.5-43.1-16.2 0-9.4 8.7-27 8.9-2.4-0.7 7.5-14.9 7.5-14.9-23.8 37.7-36.4 89.8-36.4 148.1 0 1.3 0 2.6 0.1 3.8l211.8 0c0-1.3 0.1-2.6 0.1-3.8 0-51.4-10.7-100.9-29.8-137.8-12.5 1.3-17.9-22.4-29.6-22.8-13.8-0.2 8.6 24.5-6.2 25.2-15.9 0-10.6-19.4-28.5-18.5z" class="b"/><path d="m-193 387.8c-0.1 0-0.1 0-0.2 0-8.1 0.3-18.5 54.3-26.4 54.9-23.5 7.1-22-43.3-35.5-43.1-16.2 0-9.4 8.7-27 8.9-0.3-0.1-0.4-0.5-0.3-1.1-18.7 36.2-28.6 82.8-28.6 134.3 0 1.3 0 2.6 0.1 3.8l117.9 0 0-157.8zm-89.4 19.6c2.5-4.8 5.1-9.4 7.9-13.8 0 0-7.3 10.3-7.9 13.8z" class="c"/></g></svg>